<svg width="89" height="39" viewBox="0 0 89 39" fill="none" xmlns="http://www.w3.org/2000/svg">
<path d="M9.82406 38.0234L6.58969 38L0.0740623 38.0234C1.55062 33.9688 2.11312 27.7812 2.11312 21.7344C2.11312 14.0938 1.2225 6.73438 0.214687 4.25C1.17562 4.32031 2.08969 4.36719 3.00375 4.36719C6.77719 4.36719 10.2225 3.73438 13.8553 3.73438C17.9569 3.73438 24.5194 5.51562 24.5194 10.2031C24.5194 11.3281 24.1209 12.6406 23.1834 14.1406C18.2147 21.875 9.40219 27.2188 9.40219 35.0469C9.40219 36.0078 9.54281 36.9922 9.82406 38.0234ZM8.86312 31.3203C8.86312 24.6406 16.3631 21.0781 16.3631 9.5C16.3631 6.125 15.3553 4.69531 14.0897 4.69531H14.0662C12.6131 4.69531 10.8319 6.54688 9.82406 9.47656C8.79281 12.5234 8.48812 16.8359 8.48812 21.2422C8.48812 24.7344 8.67562 28.2734 8.86312 31.3203ZM44.0625 38.0938C35.9766 38.0938 27.9141 32.5391 27.9141 21.4531C27.9141 16.3438 29.9766 10.625 33.9141 8.51562C35.3203 7.76562 36.6562 7.4375 37.9453 7.4375C42.5156 7.4375 45.9609 11.6562 45.9609 15.6641C45.9609 18.6875 43.9688 21.5938 38.9531 22.4375C39.1406 21.8047 39.2109 21.125 39.2109 20.4219C39.2109 16.0391 36.1875 10.5547 34.5234 10.5547C33.9141 10.5547 33.4922 11.3281 33.4922 13.2031C33.4922 14.2344 33.6094 15.6172 33.9141 17.3984C35.3672 25.8594 40.9453 35.8906 48.0469 35.8906C51.6562 35.8906 54.5156 32.9609 54.5156 27.3828C54.5156 25.3438 54.1406 22.9531 53.25 20.2109C51 13.1797 46.3125 6.54688 38.6719 6.54688C37.7578 6.54688 36.7969 6.64062 35.8125 6.85156C38.5781 4.29688 41.7188 3.17188 44.7891 3.17188C52.6875 3.17188 60.1875 10.6719 60.1875 21.4531C60.1875 32.5391 52.125 38.0938 44.0625 38.0938ZM74.6447 38.0938C71.6681 38.0938 68.9494 35.3281 68.1291 28.1797C67.3556 21.5938 63.7228 9.40625 61.0041 3.99219C67.7072 4.08594 70.7306 3.61719 72.7228 11.75C74.2931 18.1484 74.715 22.3438 76.7306 29.0469C77.3166 30.9688 78.2775 33.3359 79.2853 33.3359C79.8947 33.3359 80.5275 32.4453 81.09 30.0547C81.8166 26.9609 82.2853 22.2266 82.2853 18.0547C82.2853 15.8516 82.1447 13.8125 81.8869 12.2656C81.4181 9.59375 80.6447 3.3125 77.4572 3.3125C77.0588 3.3125 76.6369 3.40625 76.1681 3.61719C77.3634 1.60156 79.4963 0.617188 81.6759 0.617188C85.0275 0.617188 88.7541 2.96094 88.7541 7.76562C88.7541 12.2188 85.965 23.6094 82.8009 31.0156C81.0197 35.1406 77.6916 38.0938 74.6447 38.0938Z" fill="white"/>
</svg>
